<svg width="114" height="29" viewBox="0 0 114 29" fill="none" xmlns="http://www.w3.org/2000/svg">
<path d="M47.1321 17.9795H45.1314V13.5899C45.1314 12.9727 45.0219 12.5198 44.8029 12.2312C44.5939 11.9325 44.3002 11.7832 43.922 11.7832C43.5338 11.7832 43.1605 11.9375 42.8022 12.2461C42.4538 12.5447 42.2049 12.9379 42.0556 13.4256V17.9795H40.0549V13.5899C40.0549 12.9628 39.9454 12.5049 39.7264 12.2162C39.5174 11.9276 39.2238 11.7832 38.8455 11.7832C38.4573 11.7832 38.0841 11.9325 37.7257 12.2312C37.3773 12.5298 37.1285 12.923 36.9792 13.4107V17.9795H34.9785V10.1558H36.7851V11.6041C37.0837 11.0964 37.4818 10.7082 37.9795 10.4395C38.4772 10.1608 39.0496 10.0214 39.6966 10.0214C40.3436 10.0214 40.8462 10.1807 41.2046 10.4992C41.5729 10.8177 41.8068 11.2109 41.9063 11.6787C42.2248 11.1412 42.628 10.7331 43.1157 10.4544C43.6134 10.1657 44.1708 10.0214 44.788 10.0214C45.2757 10.0214 45.6689 10.111 45.9675 10.2902C46.276 10.4594 46.5149 10.6933 46.6842 10.9919C46.8534 11.2806 46.9678 11.609 47.0276 11.9773C47.0972 12.3456 47.1321 12.7189 47.1321 13.0971V17.9795ZM48.3365 15.6652C48.3365 15.1576 48.4758 14.7146 48.7545 14.3364C49.0432 13.9482 49.4413 13.6496 49.949 13.4405C50.4566 13.2315 51.0389 13.127 51.6959 13.127C52.0243 13.127 52.3578 13.1519 52.6962 13.2017C53.0347 13.2514 53.3283 13.3311 53.5771 13.4405V13.0225C53.5771 12.5248 53.4278 12.1416 53.1292 11.8728C52.8406 11.6041 52.4076 11.4697 51.8302 11.4697C51.4022 11.4697 50.9941 11.5443 50.6059 11.6937C50.2177 11.843 49.8096 12.0619 49.3816 12.3506L48.7396 11.0367C49.2572 10.6983 49.7847 10.4444 50.3222 10.2752C50.8697 10.106 51.442 10.0214 52.0393 10.0214C53.1541 10.0214 54.0201 10.3001 54.6372 10.8575C55.2643 11.4149 55.5779 12.2113 55.5779 13.2465V15.7399C55.5779 15.9489 55.6127 16.0982 55.6824 16.1878C55.762 16.2774 55.8864 16.3321 56.0556 16.352V17.9795C55.8765 18.0094 55.7122 18.0342 55.5629 18.0541C55.4236 18.0741 55.3041 18.084 55.2046 18.084C54.8064 18.084 54.5028 17.9944 54.2938 17.8153C54.0947 17.6361 53.9703 17.4171 53.9205 17.1583L53.8758 16.7552C53.5373 17.1931 53.1143 17.5316 52.6066 17.7705C52.099 18.0094 51.5814 18.1288 51.0538 18.1288C50.5362 18.1288 50.0684 18.0243 49.6504 17.8153C49.2422 17.5963 48.9187 17.3026 48.6799 16.9343C48.4509 16.5561 48.3365 16.1331 48.3365 15.6652ZM53.2039 16.0684C53.3134 15.9489 53.4029 15.8295 53.4726 15.71C53.5423 15.5906 53.5771 15.4811 53.5771 15.3815V14.5902C53.3382 14.4907 53.0794 14.416 52.8007 14.3663C52.522 14.3065 52.2583 14.2767 52.0094 14.2767C51.4918 14.2767 51.0638 14.3911 50.7254 14.6201C50.3969 14.8391 50.2327 15.1327 50.2327 15.501C50.2327 15.7001 50.2874 15.8892 50.3969 16.0684C50.5064 16.2475 50.6656 16.3919 50.8747 16.5013C51.0837 16.6108 51.3326 16.6656 51.6212 16.6656C51.9198 16.6656 52.2135 16.6108 52.5021 16.5013C52.7908 16.3819 53.0247 16.2376 53.2039 16.0684ZM57.4475 17.9795V10.1558H59.4482V17.9795H57.4475ZM57.4475 9.06585V7.08006H59.4482V9.06585H57.4475ZM61.2381 7.08006H63.2388V15.4711C63.2388 15.8295 63.2986 16.0733 63.418 16.2027C63.5375 16.3222 63.7017 16.3819 63.9107 16.3819C64.07 16.3819 64.2342 16.362 64.4034 16.3222C64.5726 16.2824 64.722 16.2326 64.8514 16.1729L65.1201 17.6958C64.8514 17.8252 64.5378 17.9247 64.1795 17.9944C63.8211 18.0641 63.4976 18.0989 63.209 18.0989C62.5819 18.0989 62.0941 17.9347 61.7458 17.6062C61.4073 17.2678 61.2381 16.79 61.2381 16.1729V7.08006ZM66.4099 17.9795V7.37867H70.7995C71.2574 7.37867 71.6754 7.47323 72.0537 7.66236C72.4419 7.85148 72.7753 8.11028 73.054 8.43875C73.3327 8.75728 73.5517 9.11561 73.711 9.51377C73.8703 9.90197 73.9499 10.3001 73.9499 10.7082C73.9499 11.2855 73.8205 11.833 73.5617 12.3506C73.3128 12.8583 72.9595 13.2713 72.5016 13.5899C72.0437 13.9084 71.5062 14.0676 70.8891 14.0676H67.455V17.9795H66.4099ZM67.455 13.1419H70.8443C71.2624 13.1419 71.6257 13.0275 71.9342 12.7985C72.2428 12.5696 72.4817 12.271 72.6509 11.9027C72.8201 11.5344 72.9047 11.1362 72.9047 10.7082C72.9047 10.2703 72.8052 9.86713 72.6061 9.49884C72.407 9.13055 72.1433 8.84188 71.8148 8.63285C71.4963 8.41387 71.1429 8.30438 70.7547 8.30438H67.455V13.1419ZM75.4888 17.9795V10.2006H76.5041V17.9795H75.4888ZM75.4888 8.57313V7.08006H76.5041V8.57313H75.4888ZM81.8608 18.084C81.3333 18.084 80.8456 17.9745 80.3976 17.7555C79.9497 17.5365 79.5615 17.2429 79.233 16.8746C78.9145 16.4964 78.6657 16.0684 78.4865 15.5906C78.3073 15.1128 78.2177 14.6201 78.2177 14.1124C78.2177 13.565 78.3024 13.0524 78.4716 12.5746C78.6507 12.0868 78.8996 11.6538 79.2181 11.2756C79.5466 10.8973 79.9298 10.6037 80.3678 10.3947C80.8057 10.1757 81.2935 10.0662 81.831 10.0662C82.4979 10.0662 83.0752 10.2354 83.5629 10.5738C84.0606 10.9123 84.4787 11.3303 84.8171 11.828V10.2006H85.7279V18.0094C85.7279 18.726 85.5537 19.3282 85.2053 19.816C84.8669 20.3137 84.404 20.6869 83.8168 20.9358C83.2394 21.1846 82.6074 21.309 81.9206 21.309C81.0347 21.309 80.318 21.1498 79.7705 20.8313C79.2231 20.5127 78.7752 20.0847 78.4268 19.5472L79.0539 19.0545C79.3624 19.5422 79.7705 19.9056 80.2782 20.1444C80.7958 20.3833 81.3432 20.5028 81.9206 20.5028C82.4282 20.5028 82.8911 20.4082 83.3091 20.2191C83.7371 20.0399 84.0756 19.7662 84.3244 19.3979C84.5832 19.0296 84.7126 18.5668 84.7126 18.0094V16.4715C84.414 16.9592 84.0059 17.3524 83.4883 17.651C82.9707 17.9397 82.4282 18.084 81.8608 18.084ZM82.1445 17.233C82.4531 17.233 82.7467 17.1782 83.0254 17.0687C83.3141 16.9592 83.5779 16.8149 83.8168 16.6357C84.0557 16.4466 84.2547 16.2376 84.414 16.0086C84.5733 15.7797 84.6728 15.5458 84.7126 15.3069V12.903C84.5633 12.5248 84.3493 12.1913 84.0706 11.9027C83.7919 11.6041 83.4734 11.3751 83.115 11.2159C82.7666 11.0467 82.4033 10.962 82.0251 10.962C81.5871 10.962 81.1939 11.0566 80.8456 11.2457C80.5071 11.4249 80.2185 11.6688 79.9796 11.9773C79.7506 12.276 79.5715 12.6144 79.4421 12.9926C79.3127 13.3709 79.248 13.7491 79.248 14.1274C79.248 14.5454 79.3226 14.9436 79.4719 15.3218C79.6212 15.6901 79.8253 16.0236 80.0841 16.3222C80.3528 16.6108 80.6614 16.8348 81.0098 16.9941C81.3681 17.1533 81.7464 17.233 82.1445 17.233ZM91.3294 18.1288C90.772 18.1288 90.2544 18.0243 89.7766 17.8153C89.2988 17.5963 88.8857 17.3026 88.5373 16.9343C88.1889 16.5561 87.9152 16.1231 87.7161 15.6354C87.527 15.1476 87.4325 14.6251 87.4325 14.0676C87.4325 13.341 87.5967 12.6741 87.9252 12.0669C88.2636 11.4597 88.7265 10.977 89.3137 10.6186C89.901 10.2504 90.5679 10.0662 91.3144 10.0662C92.0809 10.0662 92.7478 10.2504 93.3152 10.6186C93.8925 10.9869 94.3454 11.4747 94.6739 12.0819C95.0023 12.6791 95.1666 13.336 95.1666 14.0527C95.1666 14.1323 95.1666 14.212 95.1666 14.2916C95.1666 14.3613 95.1616 14.416 95.1516 14.4558H88.4925C88.5423 15.0133 88.6966 15.5109 88.9554 15.9489C89.2241 16.3769 89.5675 16.7203 89.9856 16.9791C90.4136 17.228 90.8765 17.3524 91.3742 17.3524C91.8818 17.3524 92.3596 17.223 92.8075 16.9642C93.2654 16.7054 93.5839 16.367 93.7631 15.9489L94.644 16.1878C94.4847 16.5561 94.2409 16.8895 93.9124 17.1882C93.5839 17.4868 93.1957 17.7207 92.7478 17.8899C92.3098 18.0492 91.837 18.1288 91.3294 18.1288ZM88.4627 13.7242H94.211C94.1712 13.1569 94.0169 12.6592 93.7482 12.2312C93.4894 11.8031 93.1459 11.4697 92.7179 11.2308C92.2999 10.982 91.837 10.8575 91.3294 10.8575C90.8217 10.8575 90.3589 10.982 89.9408 11.2308C89.5228 11.4697 89.1793 11.8081 88.9106 12.2461C88.6518 12.6741 88.5025 13.1668 88.4627 13.7242ZM100.048 18.1288C99.4902 18.1288 98.9726 18.0243 98.4948 17.8153C98.027 17.5963 97.6189 17.3026 97.2705 16.9343C96.9321 16.5561 96.6683 16.1281 96.4792 15.6503C96.2901 15.1626 96.1955 14.6499 96.1955 14.1124C96.1955 13.555 96.2901 13.0374 96.4792 12.5596C96.6683 12.0719 96.9371 11.6439 97.2855 11.2756C97.6338 10.8973 98.0419 10.6037 98.5098 10.3947C98.9876 10.1757 99.5052 10.0662 100.063 10.0662C100.62 10.0662 101.133 10.1757 101.6 10.3947C102.068 10.6037 102.476 10.8973 102.825 11.2756C103.173 11.6439 103.442 12.0719 103.631 12.5596C103.82 13.0374 103.915 13.555 103.915 14.1124C103.915 14.6499 103.82 15.1626 103.631 15.6503C103.442 16.1281 103.173 16.5561 102.825 16.9343C102.486 17.3026 102.078 17.5963 101.6 17.8153C101.133 18.0243 100.615 18.1288 100.048 18.1288ZM97.2257 14.1274C97.2257 14.7047 97.3502 15.2322 97.599 15.71C97.8578 16.1779 98.2012 16.5511 98.6292 16.8298C99.0572 17.0986 99.53 17.233 100.048 17.233C100.565 17.233 101.038 17.0936 101.466 16.8149C101.894 16.5362 102.237 16.1579 102.496 15.6802C102.755 15.1924 102.884 14.6649 102.884 14.0975C102.884 13.5202 102.755 12.9926 102.496 12.5148C102.237 12.0371 101.894 11.6588 101.466 11.3801C101.038 11.1014 100.565 10.962 100.048 10.962C99.53 10.962 99.0572 11.1064 98.6292 11.395C98.2112 11.6837 97.8727 12.0669 97.6139 12.5447C97.3551 13.0125 97.2257 13.5401 97.2257 14.1274ZM112.152 17.9795H111.137V13.6346C111.137 12.7189 111.003 12.052 110.734 11.6339C110.465 11.2059 110.042 10.9919 109.465 10.9919C109.067 10.9919 108.674 11.0914 108.285 11.2905C107.897 11.4796 107.554 11.7434 107.255 12.0819C106.966 12.4103 106.757 12.7886 106.628 13.2166V17.9795H105.613V10.2006H106.538V11.9624C106.747 11.5842 107.021 11.2557 107.36 10.977C107.698 10.6883 108.081 10.4644 108.509 10.3051C108.937 10.1458 109.38 10.0662 109.838 10.0662C110.266 10.0662 110.629 10.1458 110.928 10.3051C111.227 10.4644 111.466 10.6933 111.645 10.9919C111.824 11.2806 111.953 11.6339 112.033 12.052C112.113 12.4601 112.152 12.918 112.152 13.4256V17.9795Z" fill="white"/>
<path d="M0 12.1561V28.6297C3.89682 25.7272 5.19577 20.5086 5.19577 19.9222C5.19577 19.5075 5.62875 15.0846 5.62875 12.8732C5.87916 7.59725 9.31285 6.19334 12.396 6.18597C14.5536 6.18081 16.728 6.94936 18.199 8.46098C18.5952 8.86811 18.9176 9.2763 19.2737 9.68486C19.6821 10.1533 20.1919 10.528 20.7467 10.8281C22.5495 11.8032 24.0174 12.4336 24.2469 12.8732C13.8554 12.2097 17.0306 21.4425 19.9171 26.1419L20.6952 25.4644C23.3237 23.1761 25.6507 20.4377 26.3923 17.1107C28.5839 7.27866 21.8163 1.63006 17.3192 0.43377C8.51506 -1.47008 3.37844 3.27888 1.09793 7.18421C0.219838 8.68792 0 10.4332 0 12.1561Z" fill="white"/>
<path d="M15.5873 9.53687C15.5873 10.2239 15.0057 10.7808 14.2884 10.7808C13.571 10.7808 12.9894 10.2239 12.9894 9.53687C12.9894 8.84986 13.571 8.29293 14.2884 8.29293C15.0057 8.29293 15.5873 8.84986 15.5873 9.53687Z" fill="white"/>
</svg>
