<svg width="259" height="276" viewBox="0 0 259 276" fill="none" xmlns="http://www.w3.org/2000/svg">
<path d="M0 117.189V276C37.5412 248.019 50.0549 197.709 50.0549 192.056C50.0549 188.059 54.2261 145.421 54.2261 124.102C56.6386 73.24 89.718 59.7058 119.42 59.6348C140.206 59.5851 161.154 66.9941 175.325 81.5666C179.142 85.4915 182.248 89.4265 185.679 93.3652C189.613 97.8814 194.524 101.493 199.87 104.386C217.237 113.787 231.378 119.864 233.589 124.102C133.48 117.706 164.069 206.713 191.877 252.016L199.373 245.485C224.696 223.425 247.113 197.026 254.258 164.953C275.371 70.1687 210.173 15.7143 166.85 4.18168C82.0322 -14.1721 32.5471 31.6095 10.5772 69.2582C2.11788 83.7544 0 100.58 0 117.189Z" fill="#DEDEDE"/>
<path d="M150.165 91.9385C150.165 98.5615 144.562 103.931 137.651 103.931C130.74 103.931 125.137 98.5615 125.137 91.9385C125.137 85.3156 130.74 79.9466 137.651 79.9466C144.562 79.9466 150.165 85.3156 150.165 91.9385Z" fill="#DEDEDE"/>
</svg>
