<svg width="276" height="276" viewBox="0 0 276 276" fill="none" xmlns="http://www.w3.org/2000/svg">
<path d="M12.322 117.189V276C49.8631 248.019 62.3768 197.709 62.3768 192.056C62.3768 188.059 66.5481 145.421 66.5481 124.102C68.9606 73.24 102.04 59.7058 131.742 59.6348C152.528 59.5851 173.476 66.9941 187.647 81.5666C191.464 85.4915 194.57 89.4265 198.001 93.3652C201.935 97.8814 206.846 101.493 212.192 104.386C229.559 113.787 243.7 119.864 245.911 124.102C145.802 117.706 176.391 206.713 204.199 252.016L211.695 245.485C237.018 223.425 259.435 197.026 266.58 164.953C287.693 70.1687 222.495 15.7143 179.172 4.18168C94.3542 -14.1721 44.8691 31.6095 22.8991 69.2582C14.4398 83.7544 12.322 100.58 12.322 117.189Z" fill="#223145"/>
<path d="M162.487 91.9385C162.487 98.5615 156.884 103.931 149.973 103.931C143.062 103.931 137.459 98.5615 137.459 91.9385C137.459 85.3156 143.062 79.9466 149.973 79.9466C156.884 79.9466 162.487 85.3156 162.487 91.9385Z" fill="#223145"/>
</svg>
